<mxfile host="app.diagrams.net" modified="2024-07-06T05:55:18.571Z" agent="Mozilla/5.0 (Windows NT 10.0; Win64; x64; rv:127.0) Gecko/20100101 Firefox/127.0" etag="9RNzoJVS9HT3sb4miNLW" version="24.5.2" type="github">
  <diagram name="第 1 页" id="8y590HpkqOrroQAAtb_X">
    <mxGraphModel dx="3048" dy="733" grid="0" gridSize="10" guides="1" tooltips="1" connect="1" arrows="1" fold="1" page="1" pageScale="1" pageWidth="1827" pageHeight="1869" math="0" shadow="0">
      <root>
        <mxCell id="0" />
        <mxCell id="1" parent="0" />
        <mxCell id="J7gjgeIf879fpofRVfY5-1" value="" style="ellipse;whiteSpace=wrap;html=1;aspect=fixed;fillColor=#000000;fontSize=14;" parent="1" vertex="1">
          <mxGeometry x="420" y="57" width="16" height="16" as="geometry" />
        </mxCell>
        <mxCell id="J7gjgeIf879fpofRVfY5-2" value="" style="endArrow=classic;html=1;rounded=0;exitX=0.5;exitY=1;exitDx=0;exitDy=0;fontSize=14;" parent="1" source="J7gjgeIf879fpofRVfY5-1" edge="1">
          <mxGeometry width="50" height="50" relative="1" as="geometry">
            <mxPoint x="441" y="121" as="sourcePoint" />
            <mxPoint x="428" y="122" as="targetPoint" />
          </mxGeometry>
        </mxCell>
        <mxCell id="J7gjgeIf879fpofRVfY5-3" value="&lt;font style=&quot;font-size: 14px;&quot; face=&quot;宋体&quot;&gt;项目中引入client包&lt;/font&gt;" style="rounded=1;whiteSpace=wrap;html=1;fontSize=14;" parent="1" vertex="1">
          <mxGeometry x="280" y="122" width="317" height="48" as="geometry" />
        </mxCell>
        <mxCell id="J7gjgeIf879fpofRVfY5-4" value="&lt;pre style=&quot;font-size: 14px;&quot; class=&quot;set-code-hide prettyprint&quot; data-index=&quot;2&quot;&gt;&lt;font style=&quot;font-size: 14px;&quot;&gt;ShenyuClientCommonBeanConfiguration&lt;span style=&quot;background-color: initial; font-family: Helvetica; font-size: 14px; white-space: normal;&quot;&gt;&amp;nbsp;&lt;/span&gt;&lt;/font&gt;&lt;/pre&gt;&lt;pre style=&quot;font-size: 14px;&quot; class=&quot;set-code-hide prettyprint&quot; data-index=&quot;2&quot;&gt;&lt;font style=&quot;font-size: 14px;&quot;&gt;读取配置&lt;/font&gt;&lt;/pre&gt;" style="rounded=1;whiteSpace=wrap;html=1;fontSize=14;" parent="1" vertex="1">
          <mxGeometry x="279" y="262" width="316" height="57" as="geometry" />
        </mxCell>
        <mxCell id="J7gjgeIf879fpofRVfY5-5" value="&lt;pre style=&quot;font-size: 14px;&quot; class=&quot;set-code-hide prettyprint&quot; data-index=&quot;2&quot;&gt;&lt;pre style=&quot;font-size: 14px;&quot; class=&quot;prettyprint set-code-show&quot; data-index=&quot;1&quot;&gt;&lt;code style=&quot;position: unset; font-size: 14px;&quot; class=&quot;prism language-java has-numbering&quot;&gt;&lt;span style=&quot;font-size: 14px;&quot; class=&quot;token class-name&quot;&gt;创建SpringMvcClientEventListener&lt;/span&gt; &lt;span style=&quot;font-size: 14px;&quot; class=&quot;token function&quot;&gt;&lt;/span&gt;&lt;/code&gt;&lt;/pre&gt;&lt;/pre&gt;" style="rounded=1;whiteSpace=wrap;html=1;fontSize=14;" parent="1" vertex="1">
          <mxGeometry x="281" y="389" width="320" height="57" as="geometry" />
        </mxCell>
        <mxCell id="J7gjgeIf879fpofRVfY5-11" value="&lt;pre style=&quot;font-size: 14px;&quot; class=&quot;set-code-hide prettyprint&quot; data-index=&quot;2&quot;&gt;&lt;pre style=&quot;font-size: 14px;&quot; class=&quot;prettyprint set-code-show&quot; data-index=&quot;1&quot;&gt;&lt;pre class=&quot;prettyprint set-code-show&quot; data-index=&quot;7&quot;&gt;&lt;code style=&quot;position: unset;&quot; class=&quot;prism language-java has-numbering&quot;&gt;&lt;span class=&quot;token class-name&quot;&gt;AbstractContextRefreshedEventListener&lt;/span&gt;&lt;/code&gt;&lt;/pre&gt;&lt;pre class=&quot;prettyprint set-code-show&quot; data-index=&quot;9&quot;&gt;&lt;code style=&quot;position: unset;&quot; class=&quot;prism language-java has-numbering&quot;&gt;&lt;span class=&quot;token punctuation&quot;&gt;&lt;/span&gt;&lt;/code&gt;&lt;/pre&gt;&lt;/pre&gt;&lt;/pre&gt;" style="rounded=1;whiteSpace=wrap;html=1;fontSize=14;" parent="1" vertex="1">
          <mxGeometry x="278" y="504" width="319" height="57" as="geometry" />
        </mxCell>
        <mxCell id="J7gjgeIf879fpofRVfY5-14" value="&lt;pre style=&quot;font-size: 14px;&quot; class=&quot;set-code-hide prettyprint&quot; data-index=&quot;2&quot;&gt;&lt;pre style=&quot;font-size: 14px;&quot; class=&quot;prettyprint set-code-show&quot; data-index=&quot;1&quot;&gt;&lt;pre class=&quot;prettyprint set-code-show&quot; data-index=&quot;7&quot;&gt;&lt;pre class=&quot;prettyprint set-code-show&quot; data-index=&quot;1&quot;&gt;&lt;pre class=&quot;prettyprint set-code-show&quot; data-index=&quot;7&quot;&gt;调用ShenyuClientRegisterEventPublisher&lt;/pre&gt;&lt;pre class=&quot;prettyprint set-code-show&quot; data-index=&quot;7&quot;&gt;的start方法，开始事件发布&lt;/pre&gt;&lt;/pre&gt;&lt;/pre&gt;&lt;pre class=&quot;prettyprint set-code-show&quot; data-index=&quot;9&quot;&gt;&lt;code style=&quot;position: unset;&quot; class=&quot;prism language-java has-numbering&quot;&gt;&lt;span class=&quot;token punctuation&quot;&gt;&lt;/span&gt;&lt;/code&gt;&lt;/pre&gt;&lt;/pre&gt;&lt;/pre&gt;" style="rounded=1;whiteSpace=wrap;html=1;fontSize=14;" parent="1" vertex="1">
          <mxGeometry x="273" y="619" width="319" height="57" as="geometry" />
        </mxCell>
        <mxCell id="J7gjgeIf879fpofRVfY5-15" value="" style="endArrow=classic;html=1;rounded=0;exitX=0.5;exitY=1;exitDx=0;exitDy=0;fontSize=14;entryX=0.472;entryY=0.006;entryDx=0;entryDy=0;entryPerimeter=0;" parent="1" target="J7gjgeIf879fpofRVfY5-4" edge="1">
          <mxGeometry width="50" height="50" relative="1" as="geometry">
            <mxPoint x="427.5" y="170" as="sourcePoint" />
            <mxPoint x="427.5" y="219" as="targetPoint" />
          </mxGeometry>
        </mxCell>
        <mxCell id="J7gjgeIf879fpofRVfY5-16" value="" style="whiteSpace=wrap;html=1;aspect=fixed;" parent="1" vertex="1">
          <mxGeometry x="-100" y="157" width="301" height="301" as="geometry" />
        </mxCell>
        <mxCell id="J7gjgeIf879fpofRVfY5-17" value="&lt;pre style=&quot;font-size: 14px;&quot; class=&quot;set-code-hide prettyprint&quot; data-index=&quot;2&quot;&gt;&lt;font style=&quot;font-size: 14px;&quot;&gt;&lt;strong style=&quot;font-size: 14px;&quot;&gt;ShenyuClientRegisterRepository&lt;/strong&gt;&lt;br style=&quot;font-size: 14px;&quot;&gt;&lt;/font&gt;&lt;/pre&gt;&lt;pre style=&quot;font-size: 14px;&quot; class=&quot;set-code-hide prettyprint&quot; data-index=&quot;2&quot;&gt;&lt;font style=&quot;font-size: 14px;&quot;&gt;将客户端接口信息注册到注册中心&lt;/font&gt;&lt;strong style=&quot;font-size: 14px;&quot;&gt;&lt;br style=&quot;font-size: 14px;&quot;&gt;&lt;/strong&gt;&lt;/pre&gt;" style="rounded=1;whiteSpace=wrap;html=1;fontSize=14;" parent="1" vertex="1">
          <mxGeometry x="-64" y="389" width="226" height="57" as="geometry" />
        </mxCell>
        <mxCell id="J7gjgeIf879fpofRVfY5-18" value="&lt;pre style=&quot;font-size: 14px;&quot; class=&quot;set-code-hide prettyprint&quot; data-index=&quot;2&quot;&gt;&lt;strong style=&quot;font-size: 14px;&quot;&gt;ShenyuRegisterCenterConfig&lt;/strong&gt;&lt;br style=&quot;font-size: 14px;&quot;&gt;&lt;/pre&gt;&lt;pre style=&quot;font-size: 14px;&quot; class=&quot;set-code-hide prettyprint&quot; data-index=&quot;2&quot;&gt;客户端注册中心配置类&lt;strong style=&quot;font-size: 14px;&quot;&gt;&lt;br style=&quot;font-size: 14px;&quot;&gt;&lt;/strong&gt;&lt;/pre&gt;" style="rounded=1;whiteSpace=wrap;html=1;fontSize=14;" parent="1" vertex="1">
          <mxGeometry x="-61" y="244" width="226" height="57" as="geometry" />
        </mxCell>
        <mxCell id="J7gjgeIf879fpofRVfY5-19" value="&lt;pre style=&quot;font-size: 14px;&quot; class=&quot;set-code-hide prettyprint&quot; data-index=&quot;2&quot;&gt;&lt;strong style=&quot;font-size: 14px;&quot;&gt;ShenyuClientNamespaceConfig&lt;/strong&gt;&lt;br style=&quot;font-size: 14px;&quot;&gt;&lt;/pre&gt;&lt;pre style=&quot;font-size: 14px;&quot; class=&quot;set-code-hide prettyprint&quot; data-index=&quot;2&quot;&gt;客户端命名空间配置类&lt;strong style=&quot;font-size: 14px;&quot;&gt;&lt;br style=&quot;font-size: 14px;&quot;&gt;&lt;/strong&gt;&lt;/pre&gt;" style="rounded=1;whiteSpace=wrap;html=1;fontSize=14;fillColor=#ffe6cc;strokeColor=#d79b00;" parent="1" vertex="1">
          <mxGeometry x="-61" y="317" width="224" height="57" as="geometry" />
        </mxCell>
        <mxCell id="J7gjgeIf879fpofRVfY5-20" value="&lt;pre style=&quot;font-size: 14px;&quot; class=&quot;set-code-hide prettyprint&quot; data-index=&quot;2&quot;&gt;&lt;pre class=&quot;prettyprint set-code-show&quot; data-index=&quot;5&quot;&gt;&lt;code style=&quot;position: unset;&quot; class=&quot;prism language-java has-numbering&quot;&gt;&lt;span class=&quot;token class-name&quot;&gt;HttpClientRegisterRepository&lt;/span&gt; &lt;span class=&quot;token keyword&quot;&gt;&lt;/span&gt;&lt;/code&gt;&lt;/pre&gt;&lt;pre class=&quot;prettyprint set-code-show&quot; data-index=&quot;5&quot;&gt;&lt;code style=&quot;position: unset;&quot; class=&quot;prism language-java has-numbering&quot;&gt;具体http注册的实现类&lt;/code&gt;&lt;/pre&gt;&lt;/pre&gt;" style="rounded=1;whiteSpace=wrap;html=1;fontSize=14;" parent="1" vertex="1">
          <mxGeometry x="1193" y="995" width="284" height="57" as="geometry" />
        </mxCell>
        <mxCell id="J7gjgeIf879fpofRVfY5-21" value="" style="endArrow=classic;html=1;rounded=0;exitX=0;exitY=0.579;exitDx=0;exitDy=0;fontSize=14;exitPerimeter=0;" parent="1" source="J7gjgeIf879fpofRVfY5-4" edge="1">
          <mxGeometry width="50" height="50" relative="1" as="geometry">
            <mxPoint x="273" y="290" as="sourcePoint" />
            <mxPoint x="202" y="295" as="targetPoint" />
          </mxGeometry>
        </mxCell>
        <mxCell id="J7gjgeIf879fpofRVfY5-23" value="&lt;font face=&quot;宋体&quot; style=&quot;font-size: 14px;&quot;&gt;创建&lt;/font&gt;" style="text;strokeColor=none;align=center;fillColor=none;html=1;verticalAlign=middle;whiteSpace=wrap;rounded=0;" parent="1" vertex="1">
          <mxGeometry x="211" y="262" width="60" height="30" as="geometry" />
        </mxCell>
        <mxCell id="J7gjgeIf879fpofRVfY5-24" value="" style="endArrow=classic;html=1;rounded=0;exitX=0.5;exitY=1;exitDx=0;exitDy=0;fontSize=14;" parent="1" edge="1">
          <mxGeometry width="50" height="50" relative="1" as="geometry">
            <mxPoint x="428" y="319" as="sourcePoint" />
            <mxPoint x="428" y="387" as="targetPoint" />
          </mxGeometry>
        </mxCell>
        <mxCell id="J7gjgeIf879fpofRVfY5-28" value="" style="endArrow=classic;html=1;rounded=0;exitX=0.5;exitY=1;exitDx=0;exitDy=0;fontSize=14;" parent="1" edge="1">
          <mxGeometry width="50" height="50" relative="1" as="geometry">
            <mxPoint x="427.5" y="447" as="sourcePoint" />
            <mxPoint x="428" y="504" as="targetPoint" />
          </mxGeometry>
        </mxCell>
        <mxCell id="J7gjgeIf879fpofRVfY5-29" value="" style="endArrow=classic;html=1;rounded=0;exitX=0.5;exitY=1;exitDx=0;exitDy=0;fontSize=14;" parent="1" edge="1">
          <mxGeometry width="50" height="50" relative="1" as="geometry">
            <mxPoint x="425" y="561" as="sourcePoint" />
            <mxPoint x="425.5" y="618" as="targetPoint" />
          </mxGeometry>
        </mxCell>
        <mxCell id="J7gjgeIf879fpofRVfY5-31" value="&lt;font face=&quot;宋体&quot; style=&quot;font-size: 14px;&quot;&gt;继承自&lt;/font&gt;" style="text;strokeColor=none;align=center;fillColor=none;html=1;verticalAlign=middle;whiteSpace=wrap;rounded=0;" parent="1" vertex="1">
          <mxGeometry x="431" y="460" width="60" height="30" as="geometry" />
        </mxCell>
        <mxCell id="J7gjgeIf879fpofRVfY5-32" value="&lt;pre style=&quot;font-size: 14px;&quot; class=&quot;set-code-hide prettyprint&quot; data-index=&quot;2&quot;&gt;&lt;pre style=&quot;font-size: 14px;&quot; class=&quot;prettyprint set-code-show&quot; data-index=&quot;1&quot;&gt;&lt;pre class=&quot;prettyprint set-code-show&quot; data-index=&quot;7&quot;&gt;&lt;pre class=&quot;prettyprint set-code-show&quot; data-index=&quot;1&quot;&gt;&lt;pre class=&quot;prettyprint set-code-show&quot; data-index=&quot;7&quot;&gt;&lt;span style=&quot;background-color: initial; white-space: normal;&quot;&gt;&lt;font face=&quot;宋体&quot;&gt;start方法，添加客户端的订阅器（元数据、URI、ApiDoc）&lt;/font&gt;&lt;/span&gt;&lt;br&gt;&lt;/pre&gt;&lt;/pre&gt;&lt;/pre&gt;&lt;pre class=&quot;prettyprint set-code-show&quot; data-index=&quot;9&quot;&gt;&lt;code style=&quot;position: unset;&quot; class=&quot;prism language-java has-numbering&quot;&gt;&lt;span class=&quot;token punctuation&quot;&gt;&lt;/span&gt;&lt;/code&gt;&lt;/pre&gt;&lt;/pre&gt;&lt;/pre&gt;" style="rounded=1;whiteSpace=wrap;html=1;fontSize=14;" parent="1" vertex="1">
          <mxGeometry x="271" y="733" width="319" height="57" as="geometry" />
        </mxCell>
        <mxCell id="J7gjgeIf879fpofRVfY5-35" value="&lt;pre style=&quot;font-size: 14px;&quot; class=&quot;set-code-hide prettyprint&quot; data-index=&quot;2&quot;&gt;&lt;pre style=&quot;font-size: 14px;&quot; class=&quot;prettyprint set-code-show&quot; data-index=&quot;1&quot;&gt;&lt;pre class=&quot;prettyprint set-code-show&quot; data-index=&quot;7&quot;&gt;&lt;pre class=&quot;prettyprint set-code-show&quot; data-index=&quot;1&quot;&gt;&lt;pre class=&quot;prettyprint set-code-show&quot; data-index=&quot;7&quot;&gt;&lt;font face=&quot;宋体&quot;&gt;调用DisruptorProviderManage的startup方法&lt;/font&gt;&lt;/pre&gt;&lt;pre class=&quot;prettyprint set-code-show&quot; data-index=&quot;7&quot;&gt;&lt;span style=&quot;background-color: initial; white-space: normal;&quot;&gt;&lt;font face=&quot;宋体&quot;&gt;启动Disruptor&lt;/font&gt;&lt;/span&gt;&lt;br&gt;&lt;/pre&gt;&lt;/pre&gt;&lt;/pre&gt;&lt;pre class=&quot;prettyprint set-code-show&quot; data-index=&quot;9&quot;&gt;&lt;code style=&quot;position: unset;&quot; class=&quot;prism language-java has-numbering&quot;&gt;&lt;span class=&quot;token punctuation&quot;&gt;&lt;/span&gt;&lt;/code&gt;&lt;/pre&gt;&lt;/pre&gt;&lt;/pre&gt;" style="rounded=1;whiteSpace=wrap;html=1;fontSize=14;" parent="1" vertex="1">
          <mxGeometry x="720" y="731" width="319" height="57" as="geometry" />
        </mxCell>
        <mxCell id="J7gjgeIf879fpofRVfY5-36" value="&lt;pre style=&quot;font-size: 14px;&quot; class=&quot;set-code-hide prettyprint&quot; data-index=&quot;2&quot;&gt;&lt;pre style=&quot;font-size: 14px;&quot; class=&quot;prettyprint set-code-show&quot; data-index=&quot;1&quot;&gt;&lt;pre class=&quot;prettyprint set-code-show&quot; data-index=&quot;7&quot;&gt;&lt;code&gt;onApplicationEvent方法中监听，发布&lt;/code&gt;&lt;/pre&gt;&lt;pre class=&quot;prettyprint set-code-show&quot; data-index=&quot;7&quot;&gt;元数据、URI、ApiDoc（publisher）&lt;br&gt;&lt;/pre&gt;&lt;pre class=&quot;prettyprint set-code-show&quot; data-index=&quot;9&quot;&gt;&lt;code style=&quot;position: unset;&quot; class=&quot;prism language-java has-numbering&quot;&gt;&lt;span class=&quot;token punctuation&quot;&gt;&lt;/span&gt;&lt;/code&gt;&lt;/pre&gt;&lt;/pre&gt;&lt;/pre&gt;" style="rounded=1;whiteSpace=wrap;html=1;fontSize=14;" parent="1" vertex="1">
          <mxGeometry x="727" y="501" width="319" height="57" as="geometry" />
        </mxCell>
        <mxCell id="J7gjgeIf879fpofRVfY5-37" value="&lt;pre style=&quot;font-size: 14px;&quot; class=&quot;set-code-hide prettyprint&quot; data-index=&quot;2&quot;&gt;&lt;pre style=&quot;font-size: 14px;&quot; class=&quot;prettyprint set-code-show&quot; data-index=&quot;1&quot;&gt;&lt;pre class=&quot;prettyprint set-code-show&quot; data-index=&quot;7&quot;&gt;&lt;pre class=&quot;prettyprint set-code-show&quot; data-index=&quot;1&quot;&gt;&lt;pre class=&quot;prettyprint set-code-show&quot; data-index=&quot;7&quot;&gt;&lt;pre class=&quot;set-code-hide prettyprint&quot; data-index=&quot;17&quot;&gt;&lt;code style=&quot;position: unset;&quot; class=&quot;prism language-java has-numbering&quot;&gt;&lt;span class=&quot;token class-name&quot;&gt;QueueConsumer&lt;/span&gt;&lt;span class=&quot;token generics&quot;&gt;&lt;span class=&quot;token punctuation&quot;&gt;&lt;/span&gt;&lt;/span&gt;&lt;/code&gt;&lt;/pre&gt;&lt;pre class=&quot;set-code-hide prettyprint&quot; data-index=&quot;17&quot;&gt;&lt;code style=&quot;position: unset;&quot; class=&quot;prism language-java has-numbering&quot;&gt;&lt;span class=&quot;token class-name&quot;&gt;的&lt;/span&gt;&lt;/code&gt;onEvent负责监听事件发布并启动消费线程&lt;/pre&gt;&lt;pre class=&quot;prettyprint set-code-show&quot; data-index=&quot;17&quot;&gt;&lt;code style=&quot;position: unset;&quot; class=&quot;prism language-java has-numbering&quot;&gt;&lt;span class=&quot;token punctuation&quot;&gt;&lt;/span&gt;&lt;/code&gt;&lt;/pre&gt;&lt;/pre&gt;&lt;/pre&gt;&lt;/pre&gt;&lt;pre class=&quot;prettyprint set-code-show&quot; data-index=&quot;9&quot;&gt;&lt;code style=&quot;position: unset;&quot; class=&quot;prism language-java has-numbering&quot;&gt;&lt;span class=&quot;token punctuation&quot;&gt;&lt;/span&gt;&lt;/code&gt;&lt;/pre&gt;&lt;/pre&gt;&lt;/pre&gt;" style="rounded=1;whiteSpace=wrap;html=1;fontSize=14;" parent="1" vertex="1">
          <mxGeometry x="1175" y="501" width="319" height="57" as="geometry" />
        </mxCell>
        <mxCell id="J7gjgeIf879fpofRVfY5-39" value="" style="endArrow=classic;html=1;rounded=0;exitX=0;exitY=0.5;exitDx=0;exitDy=0;fontSize=14;entryX=1;entryY=0.5;entryDx=0;entryDy=0;" parent="1" source="J7gjgeIf879fpofRVfY5-37" target="J7gjgeIf879fpofRVfY5-36" edge="1">
          <mxGeometry width="50" height="50" relative="1" as="geometry">
            <mxPoint x="1095.5" y="550" as="sourcePoint" />
            <mxPoint x="1095" y="493" as="targetPoint" />
          </mxGeometry>
        </mxCell>
        <mxCell id="J7gjgeIf879fpofRVfY5-41" value="&lt;font face=&quot;宋体&quot; style=&quot;font-size: 14px;&quot;&gt;监听事件发布&lt;/font&gt;" style="text;strokeColor=none;align=center;fillColor=none;html=1;verticalAlign=middle;whiteSpace=wrap;rounded=0;" parent="1" vertex="1">
          <mxGeometry x="1064" y="493" width="91" height="30" as="geometry" />
        </mxCell>
        <mxCell id="J7gjgeIf879fpofRVfY5-42" value="&lt;pre style=&quot;font-size: 14px;&quot; class=&quot;set-code-hide prettyprint&quot; data-index=&quot;2&quot;&gt;&lt;pre style=&quot;font-size: 14px;&quot; class=&quot;prettyprint set-code-show&quot; data-index=&quot;1&quot;&gt;&lt;pre class=&quot;prettyprint set-code-show&quot; data-index=&quot;7&quot;&gt;&lt;pre class=&quot;prettyprint set-code-show&quot; data-index=&quot;1&quot;&gt;&lt;pre class=&quot;prettyprint set-code-show&quot; data-index=&quot;7&quot;&gt;&lt;pre class=&quot;set-code-hide prettyprint&quot; data-index=&quot;17&quot;&gt;&lt;pre class=&quot;prettyprint set-code-show&quot; data-index=&quot;18&quot;&gt;&lt;code style=&quot;position: unset;&quot; class=&quot;prism language-java has-numbering&quot;&gt;&lt;span class=&quot;token class-name&quot;&gt;RegisterClientConsumerExecutor的run中&lt;/span&gt;&lt;/code&gt;&lt;/pre&gt;&lt;pre class=&quot;prettyprint set-code-show&quot; data-index=&quot;18&quot;&gt;&lt;code style=&quot;position: unset;&quot; class=&quot;prism language-java has-numbering&quot;&gt;&lt;span class=&quot;token class-name&quot;&gt;调用订阅器&lt;/span&gt;&lt;/code&gt;&lt;/pre&gt;&lt;/pre&gt;&lt;pre class=&quot;prettyprint set-code-show&quot; data-index=&quot;17&quot;&gt;&lt;code style=&quot;position: unset;&quot; class=&quot;prism language-java has-numbering&quot;&gt;&lt;span class=&quot;token punctuation&quot;&gt;&lt;/span&gt;&lt;/code&gt;&lt;/pre&gt;&lt;/pre&gt;&lt;/pre&gt;&lt;/pre&gt;&lt;pre class=&quot;prettyprint set-code-show&quot; data-index=&quot;9&quot;&gt;&lt;code style=&quot;position: unset;&quot; class=&quot;prism language-java has-numbering&quot;&gt;&lt;span class=&quot;token punctuation&quot;&gt;&lt;/span&gt;&lt;/code&gt;&lt;/pre&gt;&lt;/pre&gt;&lt;/pre&gt;" style="rounded=1;whiteSpace=wrap;html=1;fontSize=14;" parent="1" vertex="1">
          <mxGeometry x="1178" y="616" width="319" height="57" as="geometry" />
        </mxCell>
        <mxCell id="J7gjgeIf879fpofRVfY5-43" value="&lt;pre style=&quot;font-size: 14px;&quot; class=&quot;set-code-hide prettyprint&quot; data-index=&quot;2&quot;&gt;&lt;pre style=&quot;font-size: 14px;&quot; class=&quot;prettyprint set-code-show&quot; data-index=&quot;1&quot;&gt;&lt;pre class=&quot;prettyprint set-code-show&quot; data-index=&quot;7&quot;&gt;&lt;pre class=&quot;prettyprint set-code-show&quot; data-index=&quot;1&quot;&gt;&lt;pre class=&quot;prettyprint set-code-show&quot; data-index=&quot;7&quot;&gt;&lt;pre class=&quot;set-code-hide prettyprint&quot; data-index=&quot;17&quot;&gt;&lt;pre class=&quot;prettyprint set-code-show&quot; data-index=&quot;18&quot;&gt;&lt;pre class=&quot;set-code-hide prettyprint&quot; data-index=&quot;20&quot;&gt;&lt;code style=&quot;position: unset;&quot; class=&quot;prism language-java has-numbering&quot;&gt;&lt;span class=&quot;token class-name&quot;&gt; ShenyuClientMetadataExecutorSubscriber&lt;/span&gt; &lt;span class=&quot;token keyword&quot;&gt;&lt;/span&gt;&lt;/code&gt;&lt;/pre&gt;&lt;/pre&gt;&lt;/pre&gt;&lt;pre class=&quot;prettyprint set-code-show&quot; data-index=&quot;17&quot;&gt;&lt;code style=&quot;position: unset;&quot; class=&quot;prism language-java has-numbering&quot;&gt;&lt;span class=&quot;token punctuation&quot;&gt;&lt;/span&gt;&lt;/code&gt;&lt;/pre&gt;&lt;/pre&gt;&lt;/pre&gt;&lt;/pre&gt;&lt;pre class=&quot;prettyprint set-code-show&quot; data-index=&quot;9&quot;&gt;&lt;code style=&quot;position: unset;&quot; class=&quot;prism language-java has-numbering&quot;&gt;&lt;span class=&quot;token punctuation&quot;&gt;&lt;/span&gt;&lt;/code&gt;&lt;/pre&gt;&lt;/pre&gt;&lt;/pre&gt;" style="rounded=1;whiteSpace=wrap;html=1;fontSize=14;" parent="1" vertex="1">
          <mxGeometry x="1194" y="863" width="278" height="57" as="geometry" />
        </mxCell>
        <mxCell id="J7gjgeIf879fpofRVfY5-44" value="&lt;pre style=&quot;font-size: 14px;&quot; class=&quot;set-code-hide prettyprint&quot; data-index=&quot;2&quot;&gt;&lt;pre style=&quot;font-size: 14px;&quot; class=&quot;prettyprint set-code-show&quot; data-index=&quot;1&quot;&gt;&lt;pre class=&quot;prettyprint set-code-show&quot; data-index=&quot;7&quot;&gt;&lt;pre class=&quot;prettyprint set-code-show&quot; data-index=&quot;1&quot;&gt;&lt;pre class=&quot;prettyprint set-code-show&quot; data-index=&quot;7&quot;&gt;&lt;pre class=&quot;set-code-hide prettyprint&quot; data-index=&quot;17&quot;&gt;&lt;pre class=&quot;prettyprint set-code-show&quot; data-index=&quot;18&quot;&gt;&lt;pre class=&quot;set-code-hide prettyprint&quot; data-index=&quot;22&quot;&gt;&lt;code style=&quot;position: unset;&quot; class=&quot;prism language-java has-numbering&quot;&gt;&lt;span class=&quot;token class-name&quot;&gt; ShenyuClientURIExecutorSubscriber&lt;/span&gt; &lt;span class=&quot;token keyword&quot;&gt;&lt;/span&gt;&lt;/code&gt;&lt;/pre&gt;&lt;/pre&gt;&lt;/pre&gt;&lt;pre class=&quot;prettyprint set-code-show&quot; data-index=&quot;17&quot;&gt;&lt;code style=&quot;position: unset;&quot; class=&quot;prism language-java has-numbering&quot;&gt;&lt;span class=&quot;token punctuation&quot;&gt;&lt;/span&gt;&lt;/code&gt;&lt;/pre&gt;&lt;/pre&gt;&lt;/pre&gt;&lt;/pre&gt;&lt;pre class=&quot;prettyprint set-code-show&quot; data-index=&quot;9&quot;&gt;&lt;code style=&quot;position: unset;&quot; class=&quot;prism language-java has-numbering&quot;&gt;&lt;span class=&quot;token punctuation&quot;&gt;&lt;/span&gt;&lt;/code&gt;&lt;/pre&gt;&lt;/pre&gt;&lt;/pre&gt;" style="rounded=1;whiteSpace=wrap;html=1;fontSize=14;" parent="1" vertex="1">
          <mxGeometry x="1485" y="862" width="243" height="57" as="geometry" />
        </mxCell>
        <mxCell id="J7gjgeIf879fpofRVfY5-45" value="&lt;pre style=&quot;font-size: 14px;&quot; class=&quot;set-code-hide prettyprint&quot; data-index=&quot;2&quot;&gt;&lt;pre style=&quot;font-size: 14px;&quot; class=&quot;prettyprint set-code-show&quot; data-index=&quot;1&quot;&gt;&lt;pre class=&quot;prettyprint set-code-show&quot; data-index=&quot;7&quot;&gt;&lt;pre class=&quot;prettyprint set-code-show&quot; data-index=&quot;1&quot;&gt;&lt;pre class=&quot;prettyprint set-code-show&quot; data-index=&quot;7&quot;&gt;&lt;pre class=&quot;set-code-hide prettyprint&quot; data-index=&quot;17&quot;&gt;&lt;pre class=&quot;prettyprint set-code-show&quot; data-index=&quot;18&quot;&gt;&lt;pre class=&quot;set-code-hide prettyprint&quot; data-index=&quot;22&quot;&gt;&lt;code style=&quot;position: unset;&quot; class=&quot;prism language-java has-numbering&quot;&gt;&lt;span class=&quot;token class-name&quot;&gt; ShenyuClientApiDocExecutorSubscriber&lt;/span&gt; &lt;span class=&quot;token keyword&quot;&gt;&lt;/span&gt;&lt;/code&gt;&lt;/pre&gt;&lt;/pre&gt;&lt;/pre&gt;&lt;pre class=&quot;prettyprint set-code-show&quot; data-index=&quot;17&quot;&gt;&lt;code style=&quot;position: unset;&quot; class=&quot;prism language-java has-numbering&quot;&gt;&lt;span class=&quot;token punctuation&quot;&gt;&lt;/span&gt;&lt;/code&gt;&lt;/pre&gt;&lt;/pre&gt;&lt;/pre&gt;&lt;/pre&gt;&lt;pre class=&quot;prettyprint set-code-show&quot; data-index=&quot;9&quot;&gt;&lt;code style=&quot;position: unset;&quot; class=&quot;prism language-java has-numbering&quot;&gt;&lt;span class=&quot;token punctuation&quot;&gt;&lt;/span&gt;&lt;/code&gt;&lt;/pre&gt;&lt;/pre&gt;&lt;/pre&gt;" style="rounded=1;whiteSpace=wrap;html=1;fontSize=14;" parent="1" vertex="1">
          <mxGeometry x="919" y="862" width="260" height="57" as="geometry" />
        </mxCell>
        <mxCell id="J7gjgeIf879fpofRVfY5-46" value="&lt;pre style=&quot;font-size: 14px;&quot; class=&quot;set-code-hide prettyprint&quot; data-index=&quot;2&quot;&gt;&lt;strong style=&quot;font-size: 14px;&quot;&gt;ShenyuClientConfig&lt;/strong&gt;&lt;br style=&quot;font-size: 14px;&quot;&gt;&lt;/pre&gt;&lt;pre style=&quot;font-size: 14px;&quot; class=&quot;set-code-hide prettyprint&quot; data-index=&quot;2&quot;&gt;客户端配置类&lt;strong style=&quot;font-size: 14px;&quot;&gt;&lt;br style=&quot;font-size: 14px;&quot;&gt;&lt;/strong&gt;&lt;/pre&gt;" style="rounded=1;whiteSpace=wrap;html=1;fontSize=14;" parent="1" vertex="1">
          <mxGeometry x="-59" y="170" width="224" height="57" as="geometry" />
        </mxCell>
        <mxCell id="J7gjgeIf879fpofRVfY5-47" value="" style="endArrow=classic;html=1;rounded=0;exitX=0.5;exitY=1;exitDx=0;exitDy=0;fontSize=14;" parent="1" edge="1">
          <mxGeometry width="50" height="50" relative="1" as="geometry">
            <mxPoint x="424" y="676" as="sourcePoint" />
            <mxPoint x="424.5" y="733" as="targetPoint" />
          </mxGeometry>
        </mxCell>
        <mxCell id="J7gjgeIf879fpofRVfY5-48" value="" style="endArrow=classic;html=1;rounded=0;exitX=0;exitY=0.5;exitDx=0;exitDy=0;fontSize=14;entryX=1;entryY=0.5;entryDx=0;entryDy=0;" parent="1" edge="1">
          <mxGeometry width="50" height="50" relative="1" as="geometry">
            <mxPoint x="590" y="761" as="sourcePoint" />
            <mxPoint x="719" y="761" as="targetPoint" />
          </mxGeometry>
        </mxCell>
        <mxCell id="J7gjgeIf879fpofRVfY5-49" value="" style="endArrow=classic;html=1;rounded=0;exitX=0;exitY=0.5;exitDx=0;exitDy=0;fontSize=14;entryX=1;entryY=0.5;entryDx=0;entryDy=0;" parent="1" edge="1">
          <mxGeometry width="50" height="50" relative="1" as="geometry">
            <mxPoint x="597" y="529" as="sourcePoint" />
            <mxPoint x="726" y="529" as="targetPoint" />
          </mxGeometry>
        </mxCell>
        <mxCell id="J7gjgeIf879fpofRVfY5-50" value="" style="endArrow=classic;html=1;rounded=0;exitX=0.5;exitY=1;exitDx=0;exitDy=0;fontSize=14;" parent="1" edge="1">
          <mxGeometry width="50" height="50" relative="1" as="geometry">
            <mxPoint x="1333" y="558" as="sourcePoint" />
            <mxPoint x="1333.5" y="615" as="targetPoint" />
          </mxGeometry>
        </mxCell>
        <mxCell id="J7gjgeIf879fpofRVfY5-52" value="&lt;pre style=&quot;font-size: 14px;&quot; class=&quot;set-code-hide prettyprint&quot; data-index=&quot;2&quot;&gt;&lt;pre style=&quot;font-size: 14px;&quot; class=&quot;prettyprint set-code-show&quot; data-index=&quot;1&quot;&gt;&lt;pre class=&quot;prettyprint set-code-show&quot; data-index=&quot;7&quot;&gt;&lt;pre class=&quot;prettyprint set-code-show&quot; data-index=&quot;1&quot;&gt;&lt;pre class=&quot;prettyprint set-code-show&quot; data-index=&quot;7&quot;&gt;&lt;pre class=&quot;set-code-hide prettyprint&quot; data-index=&quot;17&quot;&gt;&lt;pre class=&quot;prettyprint set-code-show&quot; data-index=&quot;18&quot;&gt;&lt;pre class=&quot;set-code-hide prettyprint&quot; data-index=&quot;20&quot;&gt;&lt;code style=&quot;position: unset;&quot; class=&quot;prism language-java has-numbering&quot;&gt;&lt;span class=&quot;token class-name&quot;&gt;ExecutorTypeSubscriber&lt;/span&gt;&lt;span class=&quot;token generics&quot;&gt;&lt;span class=&quot;token punctuation&quot;&gt;&lt;/span&gt;&lt;/span&gt;&lt;/code&gt;&lt;/pre&gt;&lt;/pre&gt;&lt;/pre&gt;&lt;pre class=&quot;prettyprint set-code-show&quot; data-index=&quot;17&quot;&gt;&lt;code style=&quot;position: unset;&quot; class=&quot;prism language-java has-numbering&quot;&gt;&lt;span class=&quot;token punctuation&quot;&gt;&lt;/span&gt;&lt;/code&gt;&lt;/pre&gt;&lt;/pre&gt;&lt;/pre&gt;&lt;/pre&gt;&lt;pre class=&quot;prettyprint set-code-show&quot; data-index=&quot;9&quot;&gt;&lt;code style=&quot;position: unset;&quot; class=&quot;prism language-java has-numbering&quot;&gt;&lt;span class=&quot;token punctuation&quot;&gt;&lt;/span&gt;&lt;/code&gt;&lt;/pre&gt;&lt;/pre&gt;&lt;/pre&gt;" style="rounded=1;whiteSpace=wrap;html=1;fontSize=14;" parent="1" vertex="1">
          <mxGeometry x="1175" y="732" width="319" height="57" as="geometry" />
        </mxCell>
        <mxCell id="J7gjgeIf879fpofRVfY5-53" value="" style="endArrow=classic;html=1;rounded=0;exitX=0.535;exitY=0.006;exitDx=0;exitDy=0;exitPerimeter=0;" parent="1" source="J7gjgeIf879fpofRVfY5-45" edge="1">
          <mxGeometry width="50" height="50" relative="1" as="geometry">
            <mxPoint x="1134" y="859" as="sourcePoint" />
            <mxPoint x="1300" y="792" as="targetPoint" />
          </mxGeometry>
        </mxCell>
        <mxCell id="J7gjgeIf879fpofRVfY5-54" value="" style="endArrow=classic;html=1;rounded=0;exitX=0.475;exitY=0.041;exitDx=0;exitDy=0;exitPerimeter=0;" parent="1" edge="1">
          <mxGeometry width="50" height="50" relative="1" as="geometry">
            <mxPoint x="1326.0500000000002" y="862.337" as="sourcePoint" />
            <mxPoint x="1326" y="790" as="targetPoint" />
          </mxGeometry>
        </mxCell>
        <mxCell id="J7gjgeIf879fpofRVfY5-55" value="" style="endArrow=classic;html=1;rounded=0;" parent="1" edge="1">
          <mxGeometry width="50" height="50" relative="1" as="geometry">
            <mxPoint x="1610" y="862" as="sourcePoint" />
            <mxPoint x="1353" y="791" as="targetPoint" />
          </mxGeometry>
        </mxCell>
        <mxCell id="J7gjgeIf879fpofRVfY5-56" value="&lt;font face=&quot;宋体&quot; style=&quot;font-size: 14px;&quot;&gt;实现&lt;/font&gt;" style="text;strokeColor=none;align=center;fillColor=none;html=1;verticalAlign=middle;whiteSpace=wrap;rounded=0;" parent="1" vertex="1">
          <mxGeometry x="1098" y="810" width="91" height="30" as="geometry" />
        </mxCell>
        <mxCell id="J7gjgeIf879fpofRVfY5-57" value="&lt;font face=&quot;宋体&quot; style=&quot;font-size: 14px;&quot;&gt;实现&lt;/font&gt;" style="text;strokeColor=none;align=center;fillColor=none;html=1;verticalAlign=middle;whiteSpace=wrap;rounded=0;" parent="1" vertex="1">
          <mxGeometry x="1281" y="812" width="91" height="30" as="geometry" />
        </mxCell>
        <mxCell id="J7gjgeIf879fpofRVfY5-58" value="&lt;font face=&quot;宋体&quot; style=&quot;font-size: 14px;&quot;&gt;实现&lt;/font&gt;" style="text;strokeColor=none;align=center;fillColor=none;html=1;verticalAlign=middle;whiteSpace=wrap;rounded=0;" parent="1" vertex="1">
          <mxGeometry x="1482" y="811" width="91" height="30" as="geometry" />
        </mxCell>
        <mxCell id="J7gjgeIf879fpofRVfY5-59" value="" style="endArrow=classic;html=1;rounded=0;exitX=0.5;exitY=1;exitDx=0;exitDy=0;fontSize=14;" parent="1" edge="1">
          <mxGeometry width="50" height="50" relative="1" as="geometry">
            <mxPoint x="1332.5" y="674" as="sourcePoint" />
            <mxPoint x="1333" y="731" as="targetPoint" />
          </mxGeometry>
        </mxCell>
        <mxCell id="J7gjgeIf879fpofRVfY5-61" value="&lt;pre style=&quot;font-size: 14px;&quot; class=&quot;set-code-hide prettyprint&quot; data-index=&quot;2&quot;&gt;&lt;pre class=&quot;prettyprint set-code-show&quot; data-index=&quot;5&quot;&gt;&lt;pre data-index=&quot;2&quot; class=&quot;set-code-hide prettyprint&quot;&gt;ShenyuClientRegisterRepository&lt;/pre&gt;&lt;/pre&gt;&lt;/pre&gt;" style="rounded=1;whiteSpace=wrap;html=1;fontSize=14;" parent="1" vertex="1">
          <mxGeometry x="1192.5" y="1109" width="284" height="57" as="geometry" />
        </mxCell>
        <mxCell id="J7gjgeIf879fpofRVfY5-63" value="" style="endArrow=classic;html=1;rounded=0;exitX=0.5;exitY=1;exitDx=0;exitDy=0;fontSize=14;" parent="1" edge="1">
          <mxGeometry width="50" height="50" relative="1" as="geometry">
            <mxPoint x="1326" y="1052" as="sourcePoint" />
            <mxPoint x="1326.5" y="1109" as="targetPoint" />
          </mxGeometry>
        </mxCell>
        <mxCell id="J7gjgeIf879fpofRVfY5-64" value="&lt;font face=&quot;宋体&quot; style=&quot;font-size: 14px;&quot;&gt;实现&lt;/font&gt;" style="text;strokeColor=none;align=center;fillColor=none;html=1;verticalAlign=middle;whiteSpace=wrap;rounded=0;" parent="1" vertex="1">
          <mxGeometry x="1308" y="1063" width="91" height="30" as="geometry" />
        </mxCell>
        <mxCell id="J7gjgeIf879fpofRVfY5-65" value="" style="endArrow=classic;html=1;rounded=0;exitX=0.535;exitY=0.006;exitDx=0;exitDy=0;exitPerimeter=0;" parent="1" edge="1">
          <mxGeometry width="50" height="50" relative="1" as="geometry">
            <mxPoint x="1056" y="919" as="sourcePoint" />
            <mxPoint x="1283" y="992" as="targetPoint" />
          </mxGeometry>
        </mxCell>
        <mxCell id="J7gjgeIf879fpofRVfY5-66" value="" style="endArrow=classic;html=1;rounded=0;exitX=0.475;exitY=0.041;exitDx=0;exitDy=0;exitPerimeter=0;" parent="1" edge="1">
          <mxGeometry width="50" height="50" relative="1" as="geometry">
            <mxPoint x="1326.0500000000002" y="922" as="sourcePoint" />
            <mxPoint x="1326" y="994.337" as="targetPoint" />
          </mxGeometry>
        </mxCell>
        <mxCell id="J7gjgeIf879fpofRVfY5-67" value="" style="endArrow=classic;html=1;rounded=0;exitX=0.539;exitY=1.018;exitDx=0;exitDy=0;exitPerimeter=0;entryX=0.689;entryY=-0.058;entryDx=0;entryDy=0;entryPerimeter=0;" parent="1" source="J7gjgeIf879fpofRVfY5-44" target="J7gjgeIf879fpofRVfY5-20" edge="1">
          <mxGeometry width="50" height="50" relative="1" as="geometry">
            <mxPoint x="1633" y="1063" as="sourcePoint" />
            <mxPoint x="1376" y="992" as="targetPoint" />
          </mxGeometry>
        </mxCell>
        <mxCell id="J7gjgeIf879fpofRVfY5-68" value="&lt;pre style=&quot;font-size: 14px;&quot; class=&quot;set-code-hide prettyprint&quot; data-index=&quot;2&quot;&gt;&lt;pre style=&quot;font-size: 14px;&quot; class=&quot;prettyprint set-code-show&quot; data-index=&quot;1&quot;&gt;&lt;pre class=&quot;prettyprint set-code-show&quot; data-index=&quot;7&quot;&gt;&lt;pre class=&quot;prettyprint set-code-show&quot; data-index=&quot;1&quot;&gt;&lt;pre class=&quot;prettyprint set-code-show&quot; data-index=&quot;7&quot;&gt;&lt;pre class=&quot;set-code-hide prettyprint&quot; data-index=&quot;17&quot;&gt;&lt;pre class=&quot;prettyprint set-code-show&quot; data-index=&quot;18&quot;&gt;&lt;pre class=&quot;set-code-hide prettyprint&quot; data-index=&quot;22&quot;&gt;命名空间订阅器&lt;/pre&gt;&lt;/pre&gt;&lt;/pre&gt;&lt;pre class=&quot;prettyprint set-code-show&quot; data-index=&quot;17&quot;&gt;&lt;code style=&quot;position: unset;&quot; class=&quot;prism language-java has-numbering&quot;&gt;&lt;span class=&quot;token punctuation&quot;&gt;&lt;/span&gt;&lt;/code&gt;&lt;/pre&gt;&lt;/pre&gt;&lt;/pre&gt;&lt;/pre&gt;&lt;pre class=&quot;prettyprint set-code-show&quot; data-index=&quot;9&quot;&gt;&lt;code style=&quot;position: unset;&quot; class=&quot;prism language-java has-numbering&quot;&gt;&lt;span class=&quot;token punctuation&quot;&gt;&lt;/span&gt;&lt;/code&gt;&lt;/pre&gt;&lt;/pre&gt;&lt;/pre&gt;" style="rounded=1;whiteSpace=wrap;html=1;fontSize=14;fillColor=#ffe6cc;strokeColor=#d79b00;" parent="1" vertex="1">
          <mxGeometry x="638" y="862" width="243" height="57" as="geometry" />
        </mxCell>
        <mxCell id="J7gjgeIf879fpofRVfY5-69" value="&lt;font face=&quot;宋体&quot; style=&quot;font-size: 14px;&quot;&gt;调用&lt;/font&gt;" style="text;strokeColor=none;align=center;fillColor=none;html=1;verticalAlign=middle;whiteSpace=wrap;rounded=0;" parent="1" vertex="1">
          <mxGeometry x="1103" y="946" width="91" height="30" as="geometry" />
        </mxCell>
        <mxCell id="J7gjgeIf879fpofRVfY5-70" value="&lt;font face=&quot;宋体&quot; style=&quot;font-size: 14px;&quot;&gt;调用&lt;/font&gt;" style="text;strokeColor=none;align=center;fillColor=none;html=1;verticalAlign=middle;whiteSpace=wrap;rounded=0;" parent="1" vertex="1">
          <mxGeometry x="1281" y="946" width="91" height="30" as="geometry" />
        </mxCell>
        <mxCell id="J7gjgeIf879fpofRVfY5-71" value="&lt;font face=&quot;宋体&quot; style=&quot;font-size: 14px;&quot;&gt;调用&lt;/font&gt;" style="text;strokeColor=none;align=center;fillColor=none;html=1;verticalAlign=middle;whiteSpace=wrap;rounded=0;" parent="1" vertex="1">
          <mxGeometry x="1485" y="946" width="91" height="30" as="geometry" />
        </mxCell>
        <mxCell id="RUFK_cbfy5Bh4QFJ2Zdc-2" value="" style="ellipse;whiteSpace=wrap;html=1;aspect=fixed;fillColor=#000000;fontSize=14;" parent="1" vertex="1">
          <mxGeometry x="1972" y="100" width="16" height="16" as="geometry" />
        </mxCell>
        <mxCell id="RUFK_cbfy5Bh4QFJ2Zdc-3" value="" style="endArrow=classic;html=1;rounded=0;exitX=0.5;exitY=1;exitDx=0;exitDy=0;fontSize=14;" parent="1" source="RUFK_cbfy5Bh4QFJ2Zdc-2" edge="1">
          <mxGeometry width="50" height="50" relative="1" as="geometry">
            <mxPoint x="1993" y="164" as="sourcePoint" />
            <mxPoint x="1980" y="165" as="targetPoint" />
          </mxGeometry>
        </mxCell>
        <mxCell id="RUFK_cbfy5Bh4QFJ2Zdc-4" value="&lt;font face=&quot;宋体&quot;&gt;进入插件配置页面&lt;/font&gt;" style="rounded=1;whiteSpace=wrap;html=1;fontSize=14;" parent="1" vertex="1">
          <mxGeometry x="1902" y="165" width="151" height="48" as="geometry" />
        </mxCell>
        <mxCell id="RUFK_cbfy5Bh4QFJ2Zdc-6" value="&lt;font face=&quot;宋体&quot;&gt;启用SpringCloud插件&lt;/font&gt;" style="rounded=1;whiteSpace=wrap;html=1;fontSize=14;" parent="1" vertex="1">
          <mxGeometry x="1903.5" y="262.5" width="151" height="48" as="geometry" />
        </mxCell>
        <mxCell id="RUFK_cbfy5Bh4QFJ2Zdc-7" value="" style="endArrow=classic;html=1;rounded=0;exitX=0.5;exitY=1;exitDx=0;exitDy=0;fontSize=14;" parent="1" edge="1">
          <mxGeometry width="50" height="50" relative="1" as="geometry">
            <mxPoint x="1979.5" y="213" as="sourcePoint" />
            <mxPoint x="1979.5" y="262" as="targetPoint" />
          </mxGeometry>
        </mxCell>
        <mxCell id="RUFK_cbfy5Bh4QFJ2Zdc-8" value="&lt;div&gt;&lt;font style=&quot;font-size: 14px;&quot; data-font-src=&quot;https://fonts.googleapis.com/css?family=%E5%AE%8B%E4%BD%93&quot; face=&quot;宋体&quot;&gt;是否已配置&lt;/font&gt;&lt;/div&gt;&lt;div&gt;&lt;font style=&quot;font-size: 14px;&quot; data-font-src=&quot;https://fonts.googleapis.com/css?family=%E5%AE%8B%E4%BD%93&quot; face=&quot;宋体&quot;&gt;注册中心&lt;/font&gt;&lt;/div&gt;" style="rhombus;whiteSpace=wrap;html=1;" parent="1" vertex="1">
          <mxGeometry x="1915.5" y="358" width="131" height="81" as="geometry" />
        </mxCell>
        <mxCell id="RUFK_cbfy5Bh4QFJ2Zdc-9" value="" style="endArrow=classic;html=1;rounded=0;exitX=0.5;exitY=1;exitDx=0;exitDy=0;fontSize=14;" parent="1" edge="1">
          <mxGeometry width="50" height="50" relative="1" as="geometry">
            <mxPoint x="1980.5" y="310" as="sourcePoint" />
            <mxPoint x="1980.5" y="359" as="targetPoint" />
          </mxGeometry>
        </mxCell>
        <mxCell id="RUFK_cbfy5Bh4QFJ2Zdc-10" value="&lt;div&gt;&lt;font face=&quot;宋体&quot;&gt;admin侧配置数据&lt;/font&gt;&lt;/div&gt;" style="rounded=1;whiteSpace=wrap;html=1;fontSize=14;" parent="1" vertex="1">
          <mxGeometry x="1906.5" y="490" width="151" height="48" as="geometry" />
        </mxCell>
        <mxCell id="RUFK_cbfy5Bh4QFJ2Zdc-11" value="&lt;font face=&quot;宋体&quot;&gt;提示用户配置注册中心&lt;/font&gt;" style="rounded=1;whiteSpace=wrap;html=1;fontSize=14;" parent="1" vertex="1">
          <mxGeometry x="2123" y="374" width="151" height="48" as="geometry" />
        </mxCell>
        <mxCell id="RUFK_cbfy5Bh4QFJ2Zdc-12" value="" style="endArrow=classic;html=1;rounded=0;exitX=0.5;exitY=1;exitDx=0;exitDy=0;fontSize=14;" parent="1" edge="1">
          <mxGeometry width="50" height="50" relative="1" as="geometry">
            <mxPoint x="1981.5" y="440" as="sourcePoint" />
            <mxPoint x="1981.5" y="489" as="targetPoint" />
          </mxGeometry>
        </mxCell>
        <mxCell id="RUFK_cbfy5Bh4QFJ2Zdc-13" value="" style="endArrow=classic;html=1;rounded=0;entryX=0;entryY=0.5;entryDx=0;entryDy=0;exitX=1;exitY=0.5;exitDx=0;exitDy=0;" parent="1" source="RUFK_cbfy5Bh4QFJ2Zdc-8" target="RUFK_cbfy5Bh4QFJ2Zdc-11" edge="1">
          <mxGeometry width="50" height="50" relative="1" as="geometry">
            <mxPoint x="2047" y="400" as="sourcePoint" />
            <mxPoint x="2097" y="350" as="targetPoint" />
          </mxGeometry>
        </mxCell>
        <mxCell id="RUFK_cbfy5Bh4QFJ2Zdc-14" value="&lt;font face=&quot;宋体&quot;&gt;同步至网关侧&lt;/font&gt;" style="rounded=1;whiteSpace=wrap;html=1;fontSize=14;" parent="1" vertex="1">
          <mxGeometry x="1909" y="588" width="151" height="48" as="geometry" />
        </mxCell>
        <mxCell id="RUFK_cbfy5Bh4QFJ2Zdc-15" value="" style="endArrow=classic;html=1;rounded=0;exitX=0.5;exitY=1;exitDx=0;exitDy=0;fontSize=14;" parent="1" edge="1">
          <mxGeometry width="50" height="50" relative="1" as="geometry">
            <mxPoint x="1981.5" y="538" as="sourcePoint" />
            <mxPoint x="1981.5" y="587" as="targetPoint" />
          </mxGeometry>
        </mxCell>
        <mxCell id="MuFxHmeNGkQzexO6I8jB-1" value="&lt;div&gt;&lt;font face=&quot;宋体&quot;&gt;ShenyuInstance&lt;/font&gt;&lt;/div&gt;&lt;div&gt;&lt;font face=&quot;宋体&quot;&gt;RegisterRepositoryFactory&lt;/font&gt;&lt;/div&gt;" style="rounded=1;whiteSpace=wrap;html=1;fontSize=14;" vertex="1" parent="1">
          <mxGeometry x="1906.5" y="685" width="151" height="48" as="geometry" />
        </mxCell>
        <mxCell id="MuFxHmeNGkQzexO6I8jB-2" value="" style="endArrow=classic;html=1;rounded=0;exitX=0.5;exitY=1;exitDx=0;exitDy=0;fontSize=14;" edge="1" parent="1">
          <mxGeometry width="50" height="50" relative="1" as="geometry">
            <mxPoint x="1980.5" y="636" as="sourcePoint" />
            <mxPoint x="1980.5" y="685" as="targetPoint" />
          </mxGeometry>
        </mxCell>
      </root>
    </mxGraphModel>
  </diagram>
</mxfile>
